<svg width="63" height="63" viewBox="0 0 63 63" fill="none" xmlns="http://www.w3.org/2000/svg">
<path d="M47.7797 1.94207C42.5203 1.19889 38.7403 3.1383 36.0761 5.17814C35.0586 5.95721 34.1705 6.77914 33.461 7.43573C33.265 7.61709 33.0827 7.78584 32.915 7.93759C32.505 8.30866 32.2049 8.55918 31.9713 8.71494C31.9667 8.718 31.9622 8.72098 31.9577 8.72389C31.7444 8.54842 31.474 8.27377 31.0925 7.8632C31.0002 7.76384 30.9034 7.65867 30.802 7.54857C30.079 6.76319 29.1249 5.72683 27.9284 4.76072C25.106 2.48168 20.9468 0.594826 14.6418 1.96135C10.4552 2.86875 6.73232 5.22397 4.32476 9.37124C1.93719 13.4841 0.932917 19.2017 1.81787 26.7028C2.93383 36.1621 8.94034 44.3862 14.2751 50.6036C16.9951 53.7737 19.9867 56.4599 22.7968 58.3662C25.5417 60.2284 28.3371 61.5 30.6216 61.5C32.8427 61.5 35.8764 60.379 38.9305 58.5558C42.0408 56.6991 45.3713 53.9964 48.1959 50.5832C48.8225 49.8259 49.4581 49.0764 50.0944 48.326C54.8579 42.7085 59.6634 37.0416 61.0831 27.7116C63.1848 13.8995 57.0051 3.24565 47.7797 1.94207ZM32.1428 8.85625C32.1428 8.85633 32.1412 8.85561 32.1379 8.85388C32.1411 8.85532 32.1428 8.85618 32.1428 8.85625Z" stroke="#00C2FC" stroke-width="3"/>
</svg>
