<svg width="120" height="26" viewBox="0 0 120 26" fill="none" xmlns="http://www.w3.org/2000/svg">
<path d="M26.8135 15.9326C26.3627 13.5201 25.6788 11.1513 24.7703 8.85587C23.8989 6.54317 22.8082 4.30893 21.5112 2.18019C21.0542 1.44185 20.363 0.856618 19.5346 0.506557C18.7062 0.156495 17.7822 0.0591629 16.892 0.228207C14.3487 0.727992 11.8492 1.40812 9.41493 2.26276C6.969 3.08238 4.58947 4.06784 2.29506 5.21137C1.50037 5.61706 0.858302 6.24384 0.456668 7.00599C0.0550333 7.76814 -0.086548 8.62843 0.0512928 9.46918C0.502048 11.8817 1.18595 14.2504 2.09449 16.5459C2.96459 18.8609 4.0554 21.0972 5.3536 23.2274C5.81564 23.961 6.50776 24.5419 7.33486 24.8904C8.16197 25.2388 9.08347 25.3378 9.97273 25.1735C12.5129 24.6722 15.0101 23.9941 17.4436 23.1449C19.892 22.3264 22.2737 21.3409 24.5697 20.1963C25.3655 19.7902 26.0084 19.1625 26.4101 18.3991C26.8118 17.6358 26.9527 16.7742 26.8135 15.9326Z" fill="#F72A16"/>
<path d="M31.3955 15.9326C31.8462 13.5201 32.5301 11.1513 33.4387 8.85587C34.31 6.54317 35.4008 4.30893 36.6978 2.18019C37.1548 1.44185 37.846 0.856618 38.6743 0.506557C39.5027 0.156495 40.4268 0.0591629 41.3169 0.228207C43.8603 0.727992 46.3598 1.40812 48.794 2.26276C51.24 3.08238 53.6195 4.06784 55.9139 5.21137C56.7086 5.61706 57.3507 6.24384 57.7523 7.00599C58.1539 7.76814 58.2955 8.62843 58.1577 9.46918C57.7069 11.8817 57.023 14.2504 56.1145 16.5459C55.2444 18.8609 54.1535 21.0972 52.8554 23.2274C52.3933 23.961 51.7012 24.5419 50.8741 24.8904C50.047 25.2388 49.1255 25.3378 48.2362 25.1735C45.696 24.6722 43.1989 23.9941 40.7654 23.1449C38.3169 22.3264 35.9352 21.3409 33.6392 20.1963C32.8434 19.7902 32.2006 19.1625 31.7989 18.3991C31.3972 17.6358 31.2563 16.7742 31.3955 15.9326Z" fill="#FABC22"/>
<path d="M88.6045 15.9326C88.1538 13.5201 87.4699 11.1513 86.5613 8.85587C85.69 6.54317 84.5992 4.30893 83.3022 2.18019C82.8452 1.44185 82.154 0.856618 81.3257 0.506557C80.4973 0.156495 79.5732 0.0591629 78.6831 0.228207C76.1397 0.727992 73.6402 1.40812 71.206 2.26276C68.76 3.08238 66.3805 4.06784 64.0861 5.21137C63.2914 5.61706 62.6493 6.24384 62.2477 7.00599C61.8461 7.76814 61.7045 8.62843 61.8423 9.46918C62.2931 11.8817 62.977 14.2504 63.8855 16.5459C64.7556 18.8609 65.8465 21.0972 67.1446 23.2274C67.6067 23.961 68.2988 24.5419 69.1259 24.8904C69.953 25.2388 70.8745 25.3378 71.7638 25.1735C74.304 24.6722 76.8011 23.9941 79.2346 23.1449C81.6831 22.3264 84.0648 21.3409 86.3608 20.1963C87.1566 19.7902 87.7994 19.1625 88.2011 18.3991C88.6028 17.6358 88.7437 16.7742 88.6045 15.9326Z" fill="#06C92E"/>
<path d="M93.1865 15.9326C93.6373 13.5201 94.3212 11.1513 95.2297 8.85587C96.1011 6.54317 97.1918 4.30893 98.4888 2.18019C98.9458 1.44185 99.637 0.856618 100.465 0.506557C101.294 0.156495 102.218 0.0591629 103.108 0.228207C105.651 0.727992 108.151 1.40812 110.585 2.26276C113.031 3.08238 115.411 4.06784 117.705 5.21137C118.5 5.61706 119.142 6.24384 119.543 7.00599C119.945 7.76814 120.087 8.62843 119.949 9.46918C119.498 11.8817 118.814 14.2504 117.906 16.5459C117.035 18.8609 115.945 21.0972 114.646 23.2274C114.184 23.961 113.492 24.5419 112.665 24.8904C111.838 25.2388 110.917 25.3378 110.027 25.1735C107.487 24.6722 104.99 23.9941 102.556 23.1449C100.108 22.3264 97.7263 21.3409 95.4303 20.1963C94.6345 19.7902 93.9916 19.1625 93.5899 18.3991C93.1882 17.6358 93.0473 16.7742 93.1865 15.9326Z" fill="#00C2FC"/>
</svg>
